<?xml version="1.0" encoding="utf-8"?>
<svg version="1.1" xmlns="http://www.w3.org/2000/svg" xmlns:xlink="http://www.w3.org/1999/xlink" x="0px" y="0px"
	 viewBox="0 0 256 256" style="enable-background:new 0 0 256 256;" xml:space="preserve">
<style type="text/css">
	.st0{fill:#996699;}
	.st1{fill:#FFFFFF;}
</style>
<title>EXT:assetcollector</title>
<rect y="0.3" class="st0" width="256" height="256"/>
<g>
	<g>
		<path class="st1" d="M84,214.4H46.4c-2.5,0-4.5-2-4.5-4.5v-58l-19.3-19.3c-1.8-1.8-1.8-4.7,0-6.4l19.3-19.3V46.7
			c0-2.5,2-4.5,4.5-4.5H84c2.5,0,4.5,2,4.5,4.5c0,2.5-2,4.5-4.5,4.5H51v57.6c0,1.2-0.5,2.4-1.3,3.2l-17.4,17.4l17.4,17.4
			c0.9,0.9,1.3,2,1.3,3.2v55.3h33c2.5,0,4.5,2,4.5,4.5S86.5,214.4,84,214.4z"/>
	</g>
	<path class="st1" d="M77.1,158v21.2h21.2l62.5-62.5l-21.2-21.2L77.1,158z M177.2,100.2c2.2-2.2,2.2-5.8,0-8L164,79
		c-2.2-2.2-5.8-2.2-8,0l-10.3,10.3l21.2,21.2C166.9,110.6,177.2,100.2,177.2,100.2z"/>
	<g>
		<path class="st1" d="M209.6,214.4H172c-2.5,0-4.5-2-4.5-4.5s2-4.5,4.5-4.5h33v-57.6c0-1.2,0.5-2.4,1.3-3.2l17.4-17.4l-17.4-17.4
			c-0.9-0.9-1.3-2-1.3-3.2V51.2h-33c-2.5,0-4.5-2-4.5-4.5c0-2.5,2-4.5,4.5-4.5h37.5c2.5,0,4.5,2,4.5,4.5v58l19.3,19.3
			c1.8,1.8,1.8,4.7,0,6.4l-19.3,19.3v60.2C214.1,212.4,212.1,214.4,209.6,214.4z"/>
	</g>
</g>
</svg>
