<svg xmlns="http://www.w3.org/2000/svg" viewBox="0 0 64 64"><defs><style>.cls-2{fill:#131313}</style></defs><rect id="BG-Color" width="64" height="64" rx="4" ry="4" style="fill:#ba9af6"/><g id="ExtentionIcons"><path d="M24 48h-4V36a2 2 0 0 0-.586-1.414L16.828 32l2.586-2.586A2 2 0 0 0 20 28V16h4a2 2 0 0 0 0-4h-6a2 2 0 0 0-2 2v13.172l-3.414 3.414a2 2 0 0 0 0 2.828L16 36.828V50a2 2 0 0 0 2 2h6a2 2 0 0 0 0-4M51.414 30.586 48 27.172v-2.374l-3.875 3.876c.098.275.25.53.46.74L47.173 32l-2.586 2.586A2 2 0 0 0 44 36v12h-4a2 2 0 0 0 0 4h6a2 2 0 0 0 2-2V36.828l3.414-3.414a2 2 0 0 0 0-2.828" class="cls-2"/><path d="M47.173 20.936c1.023-1.971.943-4.367-.298-6.246a6.2 6.2 0 0 0-.793-.97l-.001-.002a6 6 0 0 0-.889-.73q-.023-.017-.047-.035a5.7 5.7 0 0 0-.938-.499q-.043-.02-.085-.038a5.6 5.6 0 0 0-.966-.29c-.039-.007-.076-.018-.115-.025a6 6 0 0 0-.976-.093c-.027 0-.053-.008-.08-.008q-.044.002-.089.005-.157.003-.316.016-.135.007-.27.022-.16.02-.318.048-.134.021-.266.048c-.107.023-.213.053-.319.082-.086.024-.172.045-.257.072q-.16.054-.316.116c-.084.032-.167.06-.25.096-.106.046-.21.1-.313.151-.079.04-.158.075-.236.118-.108.059-.212.127-.318.193-.07.044-.142.084-.212.131-.113.077-.222.163-.331.248l-.034.026-.02-.029v.001l.02.028q-.071.05-.141.106a7 7 0 0 0-.46.42l-.018.015-10.276 10.276a7.27 7.27 0 0 0-1.913 3.378l-.55 2.204-.69 2.754v.005c-.063.253-.09.499-.092.738-.001.08.014.154.02.232.01.157.024.311.06.458.02.086.05.164.078.246.044.13.092.255.154.374q.062.116.135.224a2.6 2.6 0 0 0 .728.733c.07.046.137.095.211.135.127.068.264.119.403.166.072.024.138.056.212.075q.304.075.634.083c.018 0 .034.006.052.006h.005q.376.001.777-.098l4.958-1.24a7.27 7.27 0 0 0 3.38-1.913l10.275-10.275c.461-.462.806-.988 1.091-1.538" class="cls-2"/></g></svg>